# xmcd
#
# Track frame offsets: 
#        150
#        18483
#        37772
#        54662
#        89164
#        108301
#        129836
#        145340
#        162757
#        173192
#        191289
#        206154
#        227489
#        239387
#        255424
#        275053
#
# Disc length: 3880 seconds
#
# Revision: 2
# Processed by: cddbd v1.5.2PL0 Copyright (c) Steve Scherf et al.
# Submitted via: ExactAudioCopyFreeDBPlugin 1.0
#
DISCID=d80f2610
DTITLE=Ahmad Jamal Trio - Complete Live at the Spotlite Club 1958 CD1
DYEAR=1958
DGENRE=Jazz
TTITLE0=Ahmad's Blues
TTITLE1=It Could Happen To You
TTITLE2=I Wish I Knew
TTITLE3=Autumn Leaves
TTITLE4=Stompin' at the Savoy
TTITLE5=Cheek to Cheek
TTITLE6=The Girl Next Door
TTITLE7=Secret Love
TTITLE8=Squatty Roo
TTITLE9=Taboo
TTITLE10=Autumn in New York
TTITLE11=A Gal in Galico
TTITLE12=That's All
TTITLE13=Should I ?
TTITLE14=Too Late Now
TTITLE15=The Night Has a Thousand Eyes
EXTD=YEAR: 1958
EXTT0=
EXTT1=
EXTT2=
EXTT3=
EXTT4=
EXTT5=
EXTT6=
EXTT7=
EXTT8=
EXTT9=
EXTT10=
EXTT11=
EXTT12=
EXTT13=
EXTT14=
EXTT15=
PLAYORDER=
